<svg style="position: absolute; width: 0; height: 0; overflow: hidden;" aria-hidden="true" version="1.1" xmlns="http://www.w3.org/2000/svg" xmlns:xlink="http://www.w3.org/1999/xlink">
    <style>
        .default-palette, .palette0 {color: currentColor;
            --color0: #f4f4fd;
            --color1: #4d5ae5;
        }
    </style>
    <defs>
        <symbol id="twitter" viewBox="0 0 40 40" fill="none">
            <path fill="var(--color1, #4d5ae5)" d="M40 20c0 5.5228-2.2386 10.5228-5.8579 14.1421S25.5228 40 20 40 9.4772 37.7614 5.8579 34.1421C2.2386 30.5228 0 25.5228 0 20S2.2386 9.4772 5.8579 5.8579C9.4772 2.2386 14.4772 0 20 0s10.5228 2.2386 14.1421 5.8579C37.7614 9.4772 40 14.4772 40 20z" />
            <path fill="var(--color0, #f4f4fd)" d="M32 12.5585c-0.8925 0.3915-1.8435 0.651-2.835 0.777 1.02-0.609 1.7985-1.566 2.1645-2.7195-0.951 0.567-2.001 0.9675-3.12 1.191-0.903-0.9615-2.19-1.557-3.594-1.557-2.724 0-4.917 2.211-4.917 4.9215 0 0.39 0.033 0.765 0.114 1.122-4.0905-0.1995-7.71-2.16-10.1415-5.1465-0.4245 0.7365-0.6735 1.5795-0.6735 2.487 0 1.704 0.8775 3.2145 2.1855 4.089-0.7905-0.015-1.566-0.2445-2.223-0.606 0 0.015 0 0.0345 0 0.054 0 2.391 1.7055 4.377 3.942 4.8345-0.4005 0.1095-0.837 0.162-1.29 0.162-0.315 0-0.633-0.018-0.9315-0.084 0.6375 1.9485 2.4465 3.381 4.5975 3.4275-1.674 1.3095-3.7995 2.0985-6.1005 2.0985-0.4035 0-0.7905-0.018-1.1775-0.0675 2.1795 1.4055 4.7625 2.208 7.548 2.208 9.054 0 14.004-7.5 14.004-14.001 0-0.2175-75e-4-0.4275-0.018-0.636 0.9765-0.693 1.797-1.5585 2.466-2.5545z" />
        </symbol>
        <symbol id="linkedin" viewBox="0 0 40 40" fill="none">
            <path fill="var(--color1, #4d5ae5)" d="M40 20c0 5.5228-2.2386 10.5228-5.8579 14.1421S25.5228 40 20 40 9.4772 37.7614 5.8579 34.1421C2.2386 30.5228 0 25.5228 0 20S2.2386 9.4772 5.8579 5.8579C9.4772 2.2386 14.4772 0 20 0s10.5228 2.2386 14.1421 5.8579C37.7614 9.4772 40 14.4772 40 20z" />
            <g fill="var(--color0, #f4f4fd)" clip-path="url(#clip0_431671_2301)">
                <path d="M31.9941 32v-1e-3h6e-3v-8.802c0-4.306-0.927-7.623-5.961-7.623-2.4201 0-4.0441 1.328-4.7071 2.587h-0.07v-2.185h-4.773v16.023h4.97v-7.934c0-2.089 0.396-4.109 2.983-4.109 2.5491 0 2.5871 2.384 2.5871 4.243V32z" />
                <path d="M8.396 15.9771h4.976V32H8.396z" />
                <path d="M10.882 8C9.291 8 8 9.291 8 10.882c0 1.591 1.291 2.909 2.882 2.909 1.591 0 2.882-1.318 2.882-2.909C13.763 9.291 12.472 8 10.882 8z" />
            </g>
            <defs>
                <clipPath id="clip0_431671_2301">
                    <rect fill="#fff" transform="translate(8.00003 8)" width="24" height="24" />
                </clipPath>
            </defs>
        </symbol>
        <symbol id="instagram" viewBox="0 0 40 40" fill="none">
            <path fill="var(--color1, #4d5ae5)" d="M40 20c0 5.5228-2.2386 10.5228-5.8579 14.1421S25.5228 40 20 40 9.4772 37.7614 5.8579 34.1421C2.2386 30.5228 0 25.5228 0 20S2.2386 9.4772 5.8579 5.8579C9.4772 2.2386 14.4772 0 20 0s10.5228 2.2386 14.1421 5.8579C37.7614 9.4772 40 14.4772 40 20z" />
            <g fill="var(--color0, #f4f4fd)" clip-path="url(#clip0_431671_2298)">
                <path d="M31.9765 15.0561c-0.0562-1.2752-0.2624-2.1519-0.5578-2.9116-0.3048-0.8064-0.7736-1.5283-1.3879-2.1285-0.6001-0.6095-1.3268-1.0831-2.1239-1.3831-0.764-0.2954-1.6361-0.5016-2.9114-0.5578C23.7108 8.0141 23.303 8 20.0445 8c-3.2584 0-3.6663 0.0141-4.9463 0.0703-1.2752 0.0563-2.1519 0.2627-2.9114 0.5579-0.8065 0.3047-1.5285 0.7736-2.1286 1.3878-0.6095 0.6002-1.0829 1.3269-1.3831 2.1239-0.2954 0.7643-0.5016 1.6362-0.5578 2.9114-0.061 1.2847-0.0751 1.6926-0.0751 4.951 0 3.2585 0.0141 3.6663 0.0703 4.9463 0.0562 1.2752 0.2626 2.1519 0.558 2.9116 0.3048 0.8064 0.7782 1.5283 1.3877 2.1285 0.6001 0.6095 1.3268 1.0831 2.1239 1.3831 0.7642 0.2954 1.6362 0.5016 2.9116 0.5578 1.2797 0.0564 1.6878 0.0703 4.9462 0.0703 3.2585 0 3.6663-0.0139 4.9463-0.0703 1.2752-0.0562 2.1519-0.2624 2.9114-0.5578 1.6129-0.6236 2.8881-1.8989 3.5117-3.5116 0.2953-0.7642 0.5017-1.6364 0.5579-2.9116 0.0562-1.28 0.0703-1.6878 0.0703-4.9463 0-3.2584-48e-4-3.6663-0.061-4.9462zM29.8153 24.8549c-0.0517 1.1721-0.2486 1.805-0.4126 2.227-0.4033 1.0455-1.2331 1.8753-2.2787 2.2786-0.4219 0.1641-1.0595 0.361-2.227 0.4124-1.2659 0.0564-1.6455 0.0704-4.8477 0.0704-3.2023 0-3.5867-0.014-4.848-0.0704-1.1721-0.0514-1.805-0.2483-2.227-0.4124-0.5203-0.1923-0.9939-0.4971-1.3783-0.8956-0.3985-0.3891-0.7032-0.858-0.8955-1.3783-0.1641-0.4219-0.361-1.0596-0.4125-2.227-0.0564-1.2659-0.0703-1.6457-0.0703-4.8479s0.0139-3.5867 0.0703-4.8478c0.0515-1.1721 0.2484-1.805 0.4125-2.227 0.1923-0.5204 0.497-0.9939 0.9003-1.3785 0.389-0.3985 0.8578-0.7032 1.3783-0.8953 0.422-0.1641 1.0597-0.361 2.227-0.4127 1.2659-0.0562 1.6457-0.0703 4.8477-0.0703 3.207 0 3.5867 0.0141 4.848 0.0703 1.1721 0.0517 1.805 0.2486 2.227 0.4127 0.5203 0.1921 0.9939 0.4968 1.3783 0.8953 0.3985 0.3892 0.7033 0.8581 0.8956 1.3785 0.164 0.422 0.3609 1.0595 0.4126 2.227 0.0562 1.2659 0.0703 1.6456 0.0703 4.8478s-0.0141 3.5773-0.0703 4.8432z" />
                <path d="M20.0445 13.8369c-3.4036 0-6.1652 2.7614-6.1652 6.1653 0 3.4038 2.7616 6.1652 6.1652 6.1652 3.4039 0 6.1653-2.7614 6.1653-6.1652 0-3.4039-2.7614-6.1653-6.1653-6.1653zM20.0445 24.0014c-2.2081 0-3.9992-1.7909-3.9992-3.9992s1.7911-3.9993 3.9992-3.9993c2.2084 0 3.9993 1.791 3.9993 3.9993s-1.7909 3.9992-3.9993 3.9992z" />
                <path d="M27.893 13.5934c0 0.7948-0.6444 1.4393-1.4395 1.4393-0.7948 0-1.4393-0.6445-1.4393-1.4393 0-0.7951 0.6445-1.4393 1.4393-1.4393 0.7951 0 1.4395 0.6442 1.4395 1.4393z" />
            </g>
            <defs>
                <clipPath id="clip0_431671_2298">
                    <rect fill="#fff" transform="translate(8 8)" width="24" height="24" />
                </clipPath>
            </defs>
        </symbol>
        <symbol id="facebook" viewBox="0 0 40 40" fill="none">
            <path fill="var(--color1, #4d5ae5)" d="M40 20c0 5.5228-2.2386 10.5228-5.8579 14.1421S25.5228 40 20 40 9.4772 37.7614 5.8579 34.1421C2.2386 30.5228 0 25.5228 0 20S2.2386 9.4772 5.8579 5.8579C9.4772 2.2386 14.4772 0 20 0s10.5228 2.2386 14.1421 5.8579C37.7614 9.4772 40 14.4772 40 20z" />
            <path fill="var(--color0, #f4f4fd)" d="M23.997 11.985h2.191V8.169C25.81 8.117 24.51 8 22.996 8c-3.159 0-5.323 1.987-5.323 5.639V17h-3.486v4.266h3.486V32h4.274V21.267h3.345l0.531-4.266h-3.877v-2.939c1e-3-1.233 0.333-2.077 2.051-2.077z" />
        </symbol>
    </defs>
</svg>