<svg style="position: absolute; width: 0; height: 0; overflow: hidden;" aria-hidden="true" version="1.1" xmlns="http://www.w3.org/2000/svg" xmlns:xlink="http://www.w3.org/1999/xlink">
    <style>
        .default-palette, .palette0 {color: currentColor;
            --color0: #f4f4fd;
        }
    </style>
    <defs>
        <symbol id="Vector4" viewBox="0 0 10 8" fill="none">
            <path fill="var(--color0, #f4f4fd)" d="M8.4456 0.2551C8.6184 0.0897 8.8483-18e-4 9.0869 0 9.3255 18e-4 9.5541 0.0968 9.7244 0.2648c0.1703 0.168 0.269 0.396 0.2753 0.6357 63e-4 0.2398-0.0803 0.4727-0.2415 0.6495L4.8636 7.7044c-0.0842 0.0911-0.1858 0.1642-0.2987 0.215C4.452 7.9702 4.33 7.9975 4.2064 7.9998c-0.1237 23e-4-0.2466-0.0205-0.3613-0.067C3.7304 7.8863 3.6262 7.817 3.5387 7.729L0.2928 4.4656C0.2024 4.381 0.1299 4.2788 0.0796 4.1654 0.0294 4.0519 23e-4 3.9294 1e-4 3.8052-2e-3 3.681 0.0207 3.5577 0.067 3.4425 0.1132 3.3273 0.1821 3.2227 0.2695 3.1348 0.3568 3.047 0.4609 2.9778 0.5755 2.9312 0.69 2.8847 0.8127 2.8619 0.9363 2.8641 1.0598 2.8662 1.1816 2.8934 1.2945 2.944 1.4073 2.9945 1.5089 3.0674 1.5932 3.1583l2.5687 2.5814 4.2604-5.4575c76e-4-95e-4 0.0158-0.0186 0.0245-0.0271z" />
        </symbol>
    </defs>
</svg>